<svg xmlns="http://www.w3.org/2000/svg" xmlns:xlink="http://www.w3.org/1999/xlink" width="500" zoomAndPan="magnify" viewBox="0 0 375 374.999991" height="500" preserveAspectRatio="xMidYMid meet" version="1.0"><defs><clipPath id="c302f86398"><path d="M 25.210938 32.28125 L 52.699219 32.28125 L 52.699219 342.71875 L 25.210938 342.71875 Z M 25.210938 32.28125 " clip-rule="nonzero"/></clipPath><clipPath id="324c10a3b4"><path d="M 207.910156 32.28125 L 235.398438 32.28125 L 235.398438 342.71875 L 207.910156 342.71875 Z M 207.910156 32.28125 " clip-rule="nonzero"/></clipPath><clipPath id="8d7e4eae4c"><path d="M 207.539062 32.277344 L 349.785156 32.277344 L 349.785156 201.753906 L 207.539062 201.753906 Z M 207.539062 32.277344 " clip-rule="nonzero"/></clipPath><clipPath id="5c19ed8467"><path d="M 345.785156 88.628906 C 348.199219 97.265625 349.785156 107.140625 349.785156 116.804688 C 349.785156 126.472656 348.425781 135.773438 346.011719 144.34375 C 345.933594 144.527344 345.933594 144.707031 345.859375 144.890625 C 336.195312 177.078125 310.683594 200.785156 281.492188 201.242188 L 207.539062 201.242188 L 207.539062 32.277344 L 281.4375 32.277344 C 310.832031 32.734375 336.347656 56.078125 345.785156 88.628906 Z M 345.785156 88.628906 " clip-rule="nonzero"/></clipPath><clipPath id="34be722d90"><path d="M 207.539062 173.757812 L 349.785156 173.757812 L 349.785156 343 L 207.539062 343 Z M 207.539062 173.757812 " clip-rule="nonzero"/></clipPath><clipPath id="26a367a289"><path d="M 345.785156 230.109375 C 348.199219 238.742188 349.785156 248.617188 349.785156 258.285156 C 349.785156 267.949219 348.425781 277.25 346.011719 285.820312 C 345.933594 286.003906 345.933594 286.1875 345.859375 286.367188 C 336.195312 318.554688 310.683594 342.265625 281.492188 342.71875 L 207.539062 342.71875 L 207.539062 173.757812 L 281.4375 173.757812 C 310.832031 174.210938 336.347656 197.554688 345.785156 230.109375 Z M 345.785156 230.109375 " clip-rule="nonzero"/></clipPath><clipPath id="6e7771ffa4"><path d="M 70.886719 32.28125 L 98.371094 32.28125 L 98.371094 342.71875 L 70.886719 342.71875 Z M 70.886719 32.28125 " clip-rule="nonzero"/></clipPath><clipPath id="e807216df6"><path d="M 116.5625 32.28125 L 144.046875 32.28125 L 144.046875 342.71875 L 116.5625 342.71875 Z M 116.5625 32.28125 " clip-rule="nonzero"/></clipPath><clipPath id="82cd61fc6f"><path d="M 162.238281 32.28125 L 189.722656 32.28125 L 189.722656 342.71875 L 162.238281 342.71875 Z M 162.238281 32.28125 " clip-rule="nonzero"/></clipPath><clipPath id="69a3f2a649"><path d="M 235.390625 59.761719 L 322.296875 59.761719 L 322.296875 173.824219 L 235.390625 173.824219 Z M 235.390625 59.761719 " clip-rule="nonzero"/></clipPath><clipPath id="99a91ada59"><path d="M 318.292969 97.78125 C 320.710938 103.605469 322.296875 110.269531 322.296875 116.789062 C 322.296875 123.308594 320.9375 129.585938 318.519531 135.367188 C 318.445312 135.488281 318.445312 135.613281 318.371094 135.734375 C 308.707031 157.453125 283.195312 173.445312 255.234375 173.753906 L 235.390625 173.753906 L 235.390625 59.761719 L 255.21875 59.761719 C 283.34375 60.070312 308.859375 75.816406 318.292969 97.78125 Z M 318.292969 97.78125 " clip-rule="nonzero"/></clipPath><clipPath id="85fec4ce21"><path d="M 235.390625 201.238281 L 322.296875 201.238281 L 322.296875 315.300781 L 235.390625 315.300781 Z M 235.390625 201.238281 " clip-rule="nonzero"/></clipPath><clipPath id="17cd5adad9"><path d="M 318.292969 239.257812 C 320.710938 245.082031 322.296875 251.746094 322.296875 258.265625 C 322.296875 264.789062 320.9375 271.0625 318.519531 276.84375 C 318.445312 276.96875 318.445312 277.089844 318.371094 277.214844 C 308.707031 298.929688 283.195312 314.925781 255.234375 315.230469 L 235.390625 315.230469 L 235.390625 201.238281 L 255.21875 201.238281 C 283.34375 201.546875 308.859375 217.296875 318.292969 239.257812 Z M 318.292969 239.257812 " clip-rule="nonzero"/></clipPath><clipPath id="a41689c484"><path d="M 204.828125 146.265625 L 238.476562 146.265625 L 238.476562 173.753906 L 204.828125 173.753906 Z M 204.828125 146.265625 " clip-rule="nonzero"/></clipPath><clipPath id="ffdb56567e"><path d="M 204.003906 201.238281 L 237.652344 201.238281 L 237.652344 228.722656 L 204.003906 228.722656 Z M 204.003906 201.238281 " clip-rule="nonzero"/></clipPath></defs><g clip-path="url(#c302f86398)"><path fill="#000000" d="M 25.210938 32.28125 L 52.699219 32.28125 L 52.699219 342.675781 L 25.210938 342.675781 Z M 25.210938 32.28125 " fill-opacity="1" fill-rule="nonzero"/></g><g clip-path="url(#324c10a3b4)"><path fill="#000000" d="M 207.910156 32.28125 L 235.398438 32.28125 L 235.398438 342.675781 L 207.910156 342.675781 Z M 207.910156 32.28125 " fill-opacity="1" fill-rule="nonzero"/></g><g clip-path="url(#8d7e4eae4c)"><g clip-path="url(#5c19ed8467)"><path fill="#000000" d="M 349.785156 32.277344 L 349.785156 201.195312 L 207.539062 201.195312 L 207.539062 32.277344 Z M 349.785156 32.277344 " fill-opacity="1" fill-rule="nonzero"/></g></g><g clip-path="url(#34be722d90)"><g clip-path="url(#26a367a289)"><path fill="#000000" d="M 349.785156 173.757812 L 349.785156 342.675781 L 207.539062 342.675781 L 207.539062 173.757812 Z M 349.785156 173.757812 " fill-opacity="1" fill-rule="nonzero"/></g></g><g clip-path="url(#6e7771ffa4)"><path fill="#000000" d="M 70.886719 32.28125 L 98.371094 32.28125 L 98.371094 342.675781 L 70.886719 342.675781 Z M 70.886719 32.28125 " fill-opacity="1" fill-rule="nonzero"/></g><g clip-path="url(#e807216df6)"><path fill="#000000" d="M 116.5625 32.28125 L 144.046875 32.28125 L 144.046875 342.675781 L 116.5625 342.675781 Z M 116.5625 32.28125 " fill-opacity="1" fill-rule="nonzero"/></g><g clip-path="url(#82cd61fc6f)"><path fill="#000000" d="M 162.238281 32.28125 L 189.722656 32.28125 L 189.722656 342.675781 L 162.238281 342.675781 Z M 162.238281 32.28125 " fill-opacity="1" fill-rule="nonzero"/></g><g clip-path="url(#69a3f2a649)"><g clip-path="url(#99a91ada59)"><path fill="#ffffff" d="M 322.296875 59.761719 L 322.296875 173.824219 L 235.390625 173.824219 L 235.390625 59.761719 Z M 322.296875 59.761719 " fill-opacity="1" fill-rule="nonzero"/></g></g><g clip-path="url(#85fec4ce21)"><g clip-path="url(#17cd5adad9)"><path fill="#ffffff" d="M 322.296875 201.238281 L 322.296875 315.300781 L 235.390625 315.300781 L 235.390625 201.238281 Z M 322.296875 201.238281 " fill-opacity="1" fill-rule="nonzero"/></g></g><g clip-path="url(#a41689c484)"><path fill="#ffffff" d="M 204.828125 173.753906 L 204.828125 146.265625 L 238.433594 146.265625 L 238.433594 173.753906 Z M 204.828125 173.753906 " fill-opacity="1" fill-rule="nonzero"/></g><g clip-path="url(#ffdb56567e)"><path fill="#ffffff" d="M 204.003906 228.722656 L 204.003906 201.238281 L 237.609375 201.238281 L 237.609375 228.722656 Z M 204.003906 228.722656 " fill-opacity="1" fill-rule="nonzero"/></g></svg>